<?xml version="1.0" encoding="UTF-8"?>
<svg version="1.1" xmlns="http://www.w3.org/2000/svg" width="1748" height="1240">
<path d="M0 0 C576.84 0 1153.68 0 1748 0 C1748 409.2 1748 818.4 1748 1240 C1171.16 1240 594.32 1240 0 1240 C0 830.8 0 421.6 0 0 Z " fill="#FEFEFE" transform="translate(0,0)"/>
<path d="M0 0 C14.12102882 5.64702462 28.90311124 9.33615886 43.70800781 12.67285156 C48.48614416 13.76508492 53.23332614 14.9833497 57.98291016 16.19287109 C54.89530086 24.61708906 41.44781007 30.3063852 33.79541016 33.92333984 C32.86728516 34.34228516 31.93916016 34.76123047 30.98291016 35.19287109 C30.19916016 35.56025391 29.41541016 35.92763672 28.60791016 36.30615234 C18.38002744 40.78085103 7.03257816 42.96375072 -4.01708984 44.19287109 C5.41006921 50.57006692 19.32275034 49.10280691 30.10791016 47.06787109 C32.74664457 46.47590104 35.36279954 45.85737078 37.98291016 45.19287109 C39.25690674 44.87092773 39.25690674 44.87092773 40.55664062 44.54248047 C54.81233261 40.88859437 68.777087 36.87247853 82.09228516 30.50146484 C85.45835633 28.97763533 88.87709451 27.62403322 92.31103516 26.26147461 C106.55058946 20.56643357 120.38799688 14.21422756 133.99316406 7.14892578 C152.33250467 -2.35646109 171.0895383 -9.95223828 191.98291016 -3.80712891 C199.14951437 -1.30948576 205.94753062 2.6127513 211.98291016 7.19287109 C211.98291016 7.85287109 211.98291016 8.51287109 211.98291016 9.19287109 C212.64291016 9.19287109 213.30291016 9.19287109 213.98291016 9.19287109 C226.86036413 22.0400963 233.96809432 39.94070076 234.42041016 57.94287109 C234.21255175 65.81069684 233.04166266 73.4647461 231.76025391 81.22021484 C231.14630706 84.98561086 230.7037315 88.73009219 230.36206055 92.52856445 C229.10747105 106.2874956 225.95722113 119.72278416 222.98291016 133.19287109 C222.76731445 134.18319336 222.55171875 135.17351562 222.32958984 136.19384766 C219.54769839 148.88089058 215.971414 161.21403902 211.86669922 173.53515625 C211.26151727 175.3550487 210.66492204 177.17781277 210.07568359 179.00292969 C207.46496616 187.02041894 204.46308168 194.8552189 201.35791016 202.69287109 C200.86287659 203.95319277 200.36808387 205.21360908 199.87353516 206.47412109 C196.17936421 215.84076219 196.17936421 215.84076219 194.94473267 218.05361938 C193.8239778 220.54636284 193.60709234 222.53083098 193.42041016 225.25488281 C193.31019531 226.76959671 193.31019531 226.76959671 193.19775391 228.31491089 C193.12685547 229.40643463 193.05595703 230.49795837 192.98291016 231.62255859 C192.90169922 232.76330841 192.82048828 233.90405823 192.73681641 235.07937622 C192.47751704 238.7416993 192.22972553 242.40468738 191.98291016 246.06787109 C191.65302794 250.83634437 191.31852009 255.60448536 190.98291016 260.37255859 C190.90140717 261.54058014 190.81990417 262.70860168 190.7359314 263.91201782 C190.08168029 273.15352631 189.28541741 282.37705069 188.41113281 291.60009766 C187.85600808 297.4584434 187.40374205 303.32337358 186.98291016 309.19287109 C185.97615234 309.52158203 184.96939453 309.85029297 183.93212891 310.18896484 C167.97856855 315.53049871 152.52679932 322.07409841 138.98291016 332.19287109 C138.02900391 332.89025391 137.07509766 333.58763672 136.09228516 334.30615234 C129.39496196 339.45723562 124.59087366 345.12908749 119.98291016 352.19287109 C117.73083377 348.81475651 117.16596097 346.26177509 116.28369141 342.30615234 C115.96235135 340.89066252 115.64080981 339.47521842 115.3190918 338.05981445 C115.15249054 337.31698212 114.98588928 336.57414978 114.8142395 335.80880737 C103.81581438 278.59416373 103.81581438 278.59416373 71.08056641 233.30615234 C67.348729 231.32556825 64.18848097 230.43083604 59.98291016 231.19287109 C56.46295621 233.01080225 53.80430438 235.43515417 50.98291016 238.19287109 C49.86916016 239.26601563 49.86916016 239.26601563 48.73291016 240.36083984 C23.1641405 266.86180423 13.46845588 312.14194403 11.57275391 347.61865234 C10.55364813 364.25072505 4.10184869 375.75303362 -7.01708984 388.19287109 C-7.67708984 388.52287109 -8.33708984 388.85287109 -9.01708984 389.19287109 C-16.48992849 383.97893234 -23.38852201 378.44329915 -30.01708984 372.19287109 C-31.01482422 371.29181641 -31.01482422 371.29181641 -32.03271484 370.37255859 C-38.68930963 364.12185374 -43.8414889 356.67084559 -49.01708984 349.19287109 C-49.59587891 348.36013672 -50.17466797 347.52740234 -50.77099609 346.66943359 C-57.71609727 335.88276419 -62.39308762 323.23309959 -65.89208984 310.94287109 C-66.08295166 310.28416016 -66.27381348 309.62544922 -66.47045898 308.94677734 C-69.68859839 296.88495173 -70.24773406 284.64869936 -70.36560059 272.25048828 C-70.97415991 219.23571692 -81.42813814 165.39597891 -98.72113037 115.38891602 C-102.55756929 104.26174249 -105.73902662 94.01828194 -106.01708984 82.19287109 C-106.05511719 81.28907715 -106.09314453 80.3852832 -106.13232422 79.45410156 C-106.97884303 58.25296859 -104.36814392 37.15493035 -92.01708984 19.19287109 C-91.35708984 19.19287109 -90.69708984 19.19287109 -90.01708984 19.19287109 C-90.01708984 18.53287109 -90.01708984 17.87287109 -90.01708984 17.19287109 C-88.54833984 15.71240234 -88.54833984 15.71240234 -86.51708984 14.00537109 C-84.34058543 12.17132367 -82.18558247 10.35370497 -80.12646484 8.38818359 C-57.94019325 -12.58623283 -25.9903821 -10.75305566 0 0 Z " fill="#1585B8" transform="translate(775.01708984375,442.80712890625)"/>
<path d="M0 0 C0 0.66 0 1.32 0 2 C-0.97195313 2.43828125 -1.94390625 2.8765625 -2.9453125 3.328125 C-32.62764782 16.90095758 -62.37790575 33.52782731 -87.3203125 54.7421875 C-89 56 -89 56 -91 56 C-91 56.66 -91 57.32 -91 58 C-92.609375 59.4375 -92.609375 59.4375 -94.75 61 C-95.44609375 61.515625 -96.1421875 62.03125 -96.859375 62.5625 C-98.85101621 63.89995249 -100.83027923 64.98355423 -103 66 C-103 66.66 -103 67.32 -103 68 C-104.609375 69.65625 -104.609375 69.65625 -106.75 71.5 C-107.44609375 72.1084375 -108.1421875 72.716875 -108.859375 73.34375 C-110.84460792 74.87976963 -112.71872045 75.9723966 -115 77 C-115 77.66 -115 78.32 -115 79 C-116.61795989 80.71398989 -118.2949277 82.37264509 -120 84 C-121.75123308 85.72791784 -123.50124698 87.45707224 -125.25 89.1875 C-126.55710937 90.47720703 -126.55710937 90.47720703 -127.890625 91.79296875 C-130.02994238 93.81431066 -130.02994238 93.81431066 -131 96 C-131.66 96 -132.32 96 -133 96 C-133.27690674 96.59151855 -133.55381348 97.18303711 -133.83911133 97.79248047 C-134.93226467 99.87119604 -136.08608371 101.5126984 -137.57421875 103.3203125 C-138.0736499 103.93310059 -138.57308105 104.54588867 -139.08764648 105.17724609 C-139.61559814 105.82000488 -140.1435498 106.46276367 -140.6875 107.125 C-147.02571148 114.95394369 -152.93758462 122.7768276 -157.69921875 131.6796875 C-159.12596837 134.22470033 -160.70341565 136.62889613 -162.3125 139.0625 C-173.55202601 156.51075981 -181.37590375 176.4270836 -186.9296875 196.33203125 C-188.00801382 200.02746343 -189.22025137 203.66075411 -190.4375 207.3125 C-192.83501838 214.73116973 -194.1962981 222.14201545 -195.32421875 229.84375 C-195.73417815 232.59728941 -196.28971179 235.08837671 -197.01171875 237.80078125 C-198.36531102 243.03007643 -198.73367655 248.31313687 -199.125 253.6875 C-199.25128784 255.40779419 -199.25128784 255.40779419 -199.38012695 257.1628418 C-200.05556941 267.54631533 -200.18828549 277.91010142 -200.1875 288.3125 C-200.18840637 289.09056 -200.18931274 289.86862 -200.19024658 290.67025757 C-200.18566942 325.33084785 -194.56874527 359.9820405 -184 393 C-183.69835937 394.14597656 -183.39671875 395.29195312 -183.0859375 396.47265625 C-180.83461202 404.84171402 -177.11197334 411.07943166 -172 418 C-170.89378542 419.52940874 -169.78837598 421.05940002 -168.68359375 422.58984375 C-162.37527183 431.28144349 -155.94099578 439.8025498 -149 448 C-147.79150391 449.485 -147.79150391 449.485 -146.55859375 451 C-140.10373182 458.84352442 -133.09791678 466.11550344 -125.9375 473.3125 C-125.02782471 474.23135986 -124.11814941 475.15021973 -123.1809082 476.09692383 C-117.09579901 482.15468422 -110.7568222 487.70418148 -104 493 C-103.27466064 493.56968506 -102.54932129 494.13937012 -101.80200195 494.72631836 C-81.82111482 510.14533728 -59.59319459 521.98164315 -35 528 C-34.28183105 528.18022705 -33.56366211 528.3604541 -32.82373047 528.54614258 C-25.77552314 530.15669289 -18.95736586 530.27037814 -11.75 530.1875 C-10.55068848 530.1781543 -9.35137695 530.16880859 -8.11572266 530.15917969 C-4.74324816 530.12342422 -1.37196365 530.06795293 2 530 C3.15580566 529.97897217 3.15580566 529.97897217 4.33496094 529.95751953 C26.84223397 529.40759372 48.43601112 520.4295036 68.06835938 510.01660156 C70.00848189 508.99553607 71.96250798 508.00699711 73.921875 507.0234375 C82.669448 502.58093064 91.04771123 497.62344486 99.375 492.4375 C100.36113281 491.82447021 101.34726562 491.21144043 102.36328125 490.57983398 C108.22159232 486.88840996 113.86931446 482.991507 119.44140625 478.8815918 C121.70730954 477.21524479 123.99223491 475.58692299 126.30078125 473.98046875 C134.91281189 467.98747954 143.2955805 461.79749004 151.47460938 455.22558594 C152.88031291 454.09616344 154.29147253 452.97354062 155.703125 451.8515625 C159.99712445 448.43526734 164.25606189 444.97824858 168.5 441.5 C169.42425781 440.74589844 170.34851563 439.99179687 171.30078125 439.21484375 C172.99607326 437.82377201 174.68244219 436.42167835 176.35546875 435.00390625 C198.55477146 416.52307971 223.80137471 406.80574855 252.734375 407.78662109 C255.42456352 408.03998583 257.61440263 408.73138784 260 410 C259.56340798 420.45637876 256.41476998 429.39869493 249 437 C242.71714909 442.20146521 236.0102846 444.80907466 228.27172852 447.02075195 C216.5358443 450.47101604 204.72312199 456.27687801 196 465 C195.95907063 467.33297433 195.95758277 469.66705225 196 472 C204.84039197 476.73592427 213.59852266 479.91005867 223.6640625 477.3125 C238.96025161 472.1419572 250.73340644 461.65330732 261.9375 450.375 C262.8135791 449.49473145 263.6896582 448.61446289 264.59228516 447.70751953 C270.78650175 441.40521748 276.40067278 434.93440808 281.63232422 427.82519531 C283.16712632 425.77696601 284.75212525 423.77470336 286.34765625 421.7734375 C295.6963721 410.02215808 304.06480315 397.79315624 312.09765625 385.11328125 C322.0456988 369.56026667 322.0456988 369.56026667 330 365 C330.66515625 364.57589844 331.3303125 364.15179687 332.015625 363.71484375 C336.90401709 360.87611212 341.40449363 360.12269307 347 361 C351.2734748 362.7651309 352.96475407 364.91240523 355 369 C356.51701763 380.07012863 354.03531923 389.30998614 348.1796875 398.640625 C344.96645129 403.92644266 342.34227291 409.3900359 339.75 415 C324.8961599 446.46499326 305.37798238 475.70563138 281.54077148 501.11816406 C278.9685622 503.83958084 278.9685622 503.83958084 277 507 C276.34 507 275.68 507 275 507 C274.74476563 507.58136719 274.48953125 508.16273438 274.2265625 508.76171875 C270.84169216 514.93856813 264.38179226 519.64863767 259.0859375 524.18359375 C257.69140169 525.39793673 256.32120744 526.64079066 254.9765625 527.91015625 C219.63522791 561.08140889 173.99886022 583.61446983 127.75 596.75 C127.07998962 596.94113373 126.40997925 597.13226746 125.71966553 597.32919312 C82.23150751 609.65899772 40.96476392 610.44752608 -3 601 C-3.80501953 600.82710449 -4.61003906 600.65420898 -5.43945312 600.47607422 C-61.99691708 588.1433353 -121.28850109 563.03900391 -161.73046875 520.2421875 C-163.0016021 518.87174819 -163.0016021 518.87174819 -165 518 C-165 517.34 -165 516.68 -165 516 C-165.66 516 -166.32 516 -167 516 C-167 515.34 -167 514.68 -167 514 C-167.66 514 -168.32 514 -169 514 C-170.41015625 512.6015625 -170.41015625 512.6015625 -172.0625 510.625 C-174.63476502 507.58457223 -177.27068423 504.64957554 -180 501.75 C-203.72484839 475.32181004 -221.72283379 443.19539066 -234 410 C-234.51278797 408.64314114 -235.02580382 407.28636838 -235.5390625 405.9296875 C-244.99191958 380.64842884 -251.02053339 354.67176779 -255 328 C-255.16516113 326.90913086 -255.33032227 325.81826172 -255.50048828 324.69433594 C-258.6367391 303.42491207 -259.31873028 282.28066742 -256 261 C-255.84450684 259.96617187 -255.68901367 258.93234375 -255.52880859 257.8671875 C-254.67895893 252.23041316 -253.80999207 246.59651935 -252.90234375 240.96875 C-252.75273193 240.03482422 -252.60312012 239.10089844 -252.44897461 238.13867188 C-252 236 -252 236 -251 235 C-250.87625 234.01 -250.7525 233.02 -250.625 232 C-250.14165746 228.24066913 -249.0088043 224.89276294 -247.75390625 221.328125 C-247.00671511 219.02073682 -246.48082025 216.7508177 -246 214.375 C-245.30242024 211.04720148 -244.2748381 208.15689949 -242.84375 205.05859375 C-241.73827155 202.36143105 -240.94938671 199.60810172 -240.125 196.8125 C-236.69471728 185.51954679 -231.72563327 175.35019465 -226.14453125 165 C-224.43027898 161.82054298 -222.7832827 158.61597044 -221.1875 155.375 C-219.27075719 151.48827153 -217.19359303 147.73723257 -215 144 C-214.34 144 -213.68 144 -213 144 C-213 143.01 -213 142.02 -213 141 C-212.34 141 -211.68 141 -211 141 C-210.88970459 140.42475586 -210.77940918 139.84951172 -210.66577148 139.25683594 C-209.43312603 135.07840743 -206.57035131 131.76273947 -204.0625 128.25 C-203.51142578 127.45722656 -202.96035156 126.66445313 -202.39257812 125.84765625 C-201.5969043 124.72423828 -201.5969043 124.72423828 -200.78515625 123.578125 C-200.29926025 122.89137695 -199.81336426 122.20462891 -199.31274414 121.49707031 C-198.66293579 120.75602051 -198.66293579 120.75602051 -198 120 C-197.34 120 -196.68 120 -196 120 C-195.76667969 119.28457031 -195.53335938 118.56914062 -195.29296875 117.83203125 C-193.76277295 114.48039393 -191.84056021 112.36267551 -189.3125 109.6875 C-188.40034954 108.71288689 -187.48889353 107.73762339 -186.578125 106.76171875 C-185.72734375 105.85035156 -184.8765625 104.93898438 -184 104 C-182.84738614 102.67252378 -181.70069214 101.33986211 -180.5625 100 C-172.69904139 90.96815013 -163.88403551 81.81937563 -154 75 C-153.34 75 -152.68 75 -152 75 C-151.505 73.515 -151.505 73.515 -151 72 C-149.66666667 71.66666667 -148.33333333 71.33333333 -147 71 C-146.505 69.515 -146.505 69.515 -146 68 C-141.65714286 64 -141.65714286 64 -138 64 C-138 63.34 -138 62.68 -138 62 C-136.68 61.67 -135.36 61.34 -134 61 C-134 60.34 -134 59.68 -134 59 C-133.01 59 -132.02 59 -131 59 C-131 58.34 -131 57.68 -131 57 C-128.734375 55.37890625 -128.734375 55.37890625 -125.75 53.5625 C-121.73732733 51.11292609 -121.73732733 51.11292609 -117.890625 48.41796875 C-115.99139904 46.99354928 -114.08927861 45.87377865 -112 44.75 C-108.30889408 42.73777149 -104.68006288 40.64167172 -101.0625 38.5 C-96.71862941 35.95924551 -92.3489156 33.58322868 -87.82421875 31.3828125 C-85.60466586 30.29606046 -83.40410285 29.18547737 -81.20703125 28.0546875 C-74.52951605 24.63319681 -67.95939091 21.35600105 -60.8203125 18.984375 C-58.3040879 18.10613594 -55.85523093 17.14317562 -53.38671875 16.140625 C-47.87772985 13.92110279 -42.30059744 11.93859972 -36.6875 10 C-35.68146729 9.65114746 -34.67543457 9.30229492 -33.63891602 8.94287109 C-27.3331418 6.76895683 -21.01583967 4.68708695 -14.62109375 2.7890625 C-12.68990131 2.20769011 -10.77493024 1.57176088 -8.87109375 0.90625 C-5.76702078 -0.07353902 -3.23476243 -0.15403631 0 0 Z " fill="#67AE23" transform="translate(758,348)"/>
<path d="M0 0 C0.98134918 -0.00701431 1.96269836 -0.01402863 2.9737854 -0.02125549 C6.12840404 -0.03868063 9.28283499 -0.0451088 12.4375 -0.046875 C14.05286652 -0.04788712 14.05286652 -0.04788712 15.7008667 -0.04891968 C61.63457855 -0.00315108 106.26904204 10.42543522 147.4375 31.203125 C148.26507812 31.61369141 149.09265625 32.02425781 149.9453125 32.44726562 C174.4969568 44.670627 198.60493806 59.04935611 218.4375 78.203125 C219.00855469 78.75371582 219.57960938 79.30430664 220.16796875 79.87158203 C228.13126157 87.58653505 235.66533659 95.40391948 242.4375 104.203125 C243.4525962 105.49000063 244.46826379 106.77642567 245.484375 108.0625 C282.14038825 154.82094968 305.25175879 212.38452555 306.4375 272.203125 C306.45796387 273.07146973 306.47842773 273.93981445 306.49951172 274.83447266 C306.8870712 293.78004547 305.54682383 312.1918319 302.5 330.890625 C302.26361816 332.34178711 302.26361816 332.34178711 302.02246094 333.82226562 C300.88876028 340.40636284 299.30164024 346.78895447 297.4375 353.203125 C296.44492188 353.43386719 295.45234375 353.66460938 294.4296875 353.90234375 C281.00764005 357.09070372 268.34044225 360.34681014 257.4375 369.203125 C256.33535156 370.06164062 256.33535156 370.06164062 255.2109375 370.9375 C243.91997623 380.27348918 235.77807827 393.29835167 227.4375 405.203125 C225.93860715 402.2053393 226.80042532 399.9068108 227.30566406 396.6171875 C228.5081573 388.28654511 229.10284325 379.97934506 229.546875 371.578125 C229.58874687 370.81089111 229.63061874 370.04365723 229.67375946 369.25317383 C230.55769236 352.78162789 230.74730445 336.32864112 230.69824219 319.83642578 C230.68676793 315.95372275 230.69368984 312.07129181 230.70513439 308.18859768 C230.75263747 289.09007301 230.09376537 270.23924612 228.4375 251.203125 C228.2273529 248.59270817 228.02054156 245.98205725 227.81555176 243.37123108 C223.96698668 198.31978285 209.52288129 154.90766868 178.4453125 121.421875 C177.03973709 119.86863213 175.69312832 118.2609184 174.39453125 116.6171875 C171.46169 112.99943123 167.97837668 110.2097442 164.4375 107.203125 C163.52097656 106.38714844 162.60445312 105.57117188 161.66015625 104.73046875 C147.67646075 92.38513447 131.87904978 82.8974923 115.4375 74.203125 C114.31601562 73.60113281 113.19453125 72.99914062 112.0390625 72.37890625 C95.70585207 63.89591924 78.46536041 57.01915185 60.79589844 51.89746094 C58.35585484 51.17908785 55.93254435 50.41679162 53.5078125 49.6484375 C40.67962418 45.67033245 27.85444619 43.4201948 14.55566406 41.64111328 C11.74040423 41.24567199 8.94790449 40.78614737 6.1484375 40.29296875 C-44.99133893 31.73908284 -102.97515981 39.84929706 -150.78369141 59.51391602 C-155.25022855 61.30721548 -155.25022855 61.30721548 -158.5625 60.203125 C-152.69350828 54.67046519 -146.46527636 50.3497868 -139.5625 46.203125 C-138.93134277 45.8225293 -138.30018555 45.44193359 -137.64990234 45.04980469 C-132.65276803 42.04460187 -127.61859313 39.10786529 -122.5625 36.203125 C-121.96518066 35.85636719 -121.36786133 35.50960937 -120.75244141 35.15234375 C-92.74174937 19.01304114 -61.28328571 9.29554281 -29.75 2.890625 C-28.57848389 2.65158447 -28.57848389 2.65158447 -27.38330078 2.40771484 C-18.28935251 0.63960957 -9.25246639 0.04441013 0 0 Z " fill="#1573A4" transform="translate(820.5625,276.796875)"/>
<path d="M0 0 C1.07507812 0.3403125 2.15015625 0.680625 3.2578125 1.03125 C17.27224837 5.934646 31.35019998 15.30611414 38.8515625 28.5 C48.60259828 49.72674456 52.99314149 72.59915834 45 95 C41.23667729 104.84998292 35.37557694 111.70932179 28 119 C27.34128906 119.66902344 26.68257812 120.33804688 26.00390625 121.02734375 C17.85381119 128.75678874 7.59871872 133.6926874 -2.875 137.4375 C-3.56392334 137.68443604 -4.25284668 137.93137207 -4.96264648 138.18579102 C-21.87733367 143.89727026 -41.32643749 142.12706594 -57.1875 134.3125 C-63.8444727 130.88621131 -70.42135655 127.0349621 -76 122 C-76 121.34 -76 120.68 -76 120 C-76.90298828 119.60554688 -76.90298828 119.60554688 -77.82421875 119.203125 C-86.12427642 114.61350604 -91.12486062 101.47540699 -94.07421875 92.86328125 C-98.49566773 77.05390514 -98.78692692 59.15763355 -91.34765625 44.109375 C-83.31775087 31.54082745 -69.96277146 19.79250482 -55.22875977 16.37939453 C-37.9809667 13.44335877 -22.25922446 16.907051 -8 27 C-4.810106 29.84149423 -1.85337951 32.82237282 1 36 C-6.87761867 21.22946499 -16.23473101 11.99058019 -32.4375 6.6875 C-38.87160985 4.87255134 -45.3729978 3.82430797 -52 3 C-51.67 2.34 -51.34 1.68 -51 1 C-34.5751947 -4.27596325 -16.52812707 -5.32334482 0 0 Z " fill="#2693C4" transform="translate(1132,182)"/>
<path d="M0 0 C1.04808838 0.00016113 2.09617676 0.00032227 3.17602539 0.00048828 C12.26654809 0.13230537 20.98213775 1.28561859 29.5625 4.375 C30.0575 5.365 30.0575 5.365 30.5625 6.375 C29.83248779 6.35405273 29.10247559 6.33310547 28.3503418 6.31152344 C24.98370617 6.22743073 21.61729255 6.17604721 18.25 6.125 C17.10208984 6.09148437 15.95417969 6.05796875 14.77148438 6.0234375 C3.36073086 5.89413718 -6.66218747 8.85095154 -15.4375 16.375 C-20.31784044 21.23963312 -20.31784044 21.23963312 -22.4375 27.375 C-21.91542969 26.98828125 -21.39335937 26.6015625 -20.85546875 26.203125 C-6.49412765 16.04203603 9.10180389 15.06402169 26.125 16.875 C38.98205356 19.1657172 51.53675415 26.54521211 59.48046875 36.8671875 C69.69937212 51.90139502 72.65160133 68.98158535 70.06640625 86.79296875 C69.38021618 89.72769124 68.54529715 92.52648632 67.5625 95.375 C67.24539063 96.34566406 66.92828125 97.31632812 66.6015625 98.31640625 C62.3514156 109.87620296 54.42605612 120.01616581 44.5625 127.375 C43.86640625 127.89449219 43.1703125 128.41398438 42.453125 128.94921875 C26.28110841 140.3327127 7.99680011 143.69748284 -11.4140625 140.87109375 C-30.30580766 137.20584386 -45.60751764 127.41124338 -56.625 111.625 C-67.39943563 94.78730354 -70.60847906 76.43623446 -67.4375 56.875 C-64.81447467 45.11489593 -58.64754301 33.96836278 -51.4375 24.375 C-50.80328125 23.49521484 -50.80328125 23.49521484 -50.15625 22.59765625 C-38.1501607 7.20612899 -18.9922069 -0.02726806 0 0 Z " fill="#76B420" transform="translate(450.4375,359.625)"/>
<path d="M0 0 C55.09375 0 55.09375 0 63.7265625 7.5 C71.99407056 16.29695439 71.43653428 27.13024948 71.36328125 38.4609375 C71.36276143 40.05840047 71.36328382 41.65586408 71.36479187 43.25332642 C71.36470254 46.59020629 71.35435665 49.9268426 71.33618164 53.26367188 C71.31353308 57.51215543 71.3129481 61.76028276 71.31969929 66.00881004 C71.32306334 69.30507496 71.31636306 72.60126071 71.30657005 75.89751053 C71.30275684 77.46258758 71.30155348 79.02767349 71.3031559 80.59275436 C71.30730268 104.81668306 71.30730268 104.81668306 65 112 C47.94271555 125.64582756 15.98307277 118 0 118 C0 79.06 0 40.12 0 0 Z " fill="#0F74A7" transform="translate(662,958)"/>
<path d="M0 0 C10.23 0 20.46 0 31 0 C31.33 32.67 31.66 65.34 32 99 C33.65 99.33 35.3 99.66 37 100 C39.1598321 97.8401679 38.18659545 92.79895366 38.20532227 89.79858398 C38.21522186 88.83283447 38.22512146 87.86708496 38.23532104 86.87207031 C38.26703901 83.66343684 38.291734 80.45478852 38.31640625 77.24609375 C38.3369669 75.02791447 38.35796312 72.80973918 38.37937927 70.59156799 C38.43469182 64.74064359 38.48406046 58.8896833 38.53222656 53.03869629 C38.58237471 47.0732909 38.63809559 41.10793792 38.69335938 35.14257812 C38.80105322 23.42842843 38.90195842 11.71423446 39 0 C49.23 0 59.46 0 70 0 C70.06784549 12.63944099 70.12285652 25.27876052 70.15543652 37.91834259 C70.17107527 43.78775309 70.19228108 49.65703226 70.22631836 55.52636719 C70.25897529 61.19330634 70.27686648 66.86011937 70.28463173 72.52714539 C70.29016384 74.68643681 70.30096668 76.84572154 70.31719017 79.00495911 C70.33904835 82.03535746 70.34196338 85.06523829 70.34057617 88.09570312 C70.351362 88.98331329 70.36214783 89.87092346 70.3732605 90.78543091 C70.32789737 99.97669796 67.49487225 106.29952696 61.1796875 113.01953125 C52.67262408 120.74906737 41.57931885 121.64444047 30.59375 121.375 C21.41116455 120.84289654 13.21095336 117.28975356 6.5859375 110.90234375 C2.57023018 106.08547314 -0.12833363 100.22856176 -0.12025452 93.91877747 C-0.12162918 93.09006638 -0.12300385 92.26135529 -0.12442017 91.40753174 C-0.12082489 90.50194519 -0.11722961 89.59635864 -0.11352539 88.66333008 C-0.11367142 87.70704208 -0.11381744 86.75075409 -0.1139679 85.76548767 C-0.11327044 82.6001459 -0.1054858 79.43486276 -0.09765625 76.26953125 C-0.09579148 74.07663505 -0.09436785 71.88373844 -0.09336853 69.69084167 C-0.08954802 63.91552584 -0.07972168 58.14023511 -0.06866455 52.3649292 C-0.05844044 46.47310729 -0.05386876 40.58128134 -0.04882812 34.68945312 C-0.03809902 23.12628928 -0.02050596 11.56315065 0 0 Z " fill="#1075A7" transform="translate(349,958)"/>
<path d="M0 0 C8.58 0 17.16 0 26 0 C31.33333333 16 36.66666667 32 42 48 C42.33 32.16 42.66 16.32 43 0 C51.25 0 59.5 0 68 0 C68 38.94 68 77.88 68 118 C59.42 118 50.84 118 42 118 C40.15032035 113.06752094 38.39817944 108.27153361 36.84375 103.26171875 C36.46089844 102.02873047 36.07804687 100.79574219 35.68359375 99.52539062 C35.48878418 98.8935083 35.29397461 98.26162598 35.09326172 97.6105957 C34.50416445 95.70099932 33.91030168 93.7928752 33.31640625 91.88476562 C31.06601969 84.61457738 29.00489871 77.35129529 27 70 C26.67 85.84 26.34 101.68 26 118 C17.42 118 8.84 118 0 118 C0 79.06 0 40.12 0 0 Z " fill="#7BB623" transform="translate(1284,955)"/>
<path d="M0 0 C14.85 0 29.7 0 45 0 C46.25 9.9375 46.25 9.9375 46.61425781 12.88647461 C47.54387839 20.13121944 48.68274337 27.33350242 49.8515625 34.54296875 C52.30352766 49.68372875 54.47531666 64.86244665 56.65087891 80.04492188 C57.16404514 83.62133252 57.67961781 87.19739071 58.1953125 90.7734375 C58.42349167 92.37522354 58.42349167 92.37522354 58.65628052 94.0093689 C59.50836326 99.91538092 60.47841763 105.77671434 61.62594604 111.63296509 C62 114 62 114 62 118 C51.44 118 40.88 118 30 118 C29.19372075 110.74348676 28.91683038 104.2357571 29 97 C25.04 97 21.08 97 17 97 C17.020625 98.60875 17.04125 100.2175 17.0625 101.875 C17.13321953 107.39112328 16.56060841 112.3939159 16 118 C5.44 118 -5.12 118 -16 118 C-14.69989896 106.02007349 -13.27610505 94.06967357 -11.6875 82.125 C-11.47018666 80.48030971 -11.25290214 78.83561562 -11.03564453 77.19091797 C-9.4303471 65.07514223 -7.75839478 52.96903563 -6.05758667 40.86633301 C-4.56105484 30.21546402 -3.14687564 19.55911026 -1.89990234 8.87548828 C-1.79371582 7.98587402 -1.6875293 7.09625977 -1.578125 6.1796875 C-1.48950195 5.41382324 -1.40087891 4.64795898 -1.30957031 3.85888672 C-1 2 -1 2 0 0 Z " fill="#0F7BAE" transform="translate(958,958)"/>
<path d="M0 0 C10.56 0 21.12 0 32 0 C33.2928198 7.11050891 34.40277288 13.91295726 35 21.06640625 C35.08121094 21.98477768 35.16242188 22.90314911 35.24609375 23.84934998 C35.50218903 26.75333812 35.75153607 29.65784988 36 32.5625 C36.33050607 36.37655293 36.66411516 40.19032336 37 44.00390625 C37.0810498 44.92708649 37.16209961 45.85026672 37.24560547 46.80142212 C38.02569276 55.55027489 38.98262959 64.27591349 40 73 C40.10546143 71.7123877 40.21092285 70.42477539 40.31958008 69.09814453 C42.21625387 46.01903415 44.14494632 22.98318212 47 0 C57.89 0 68.78 0 80 0 C79.04886985 10.82825095 78.00938202 21.55221938 76.31713867 32.28686523 C74.89225832 41.44183045 73.69994266 50.62591881 72.5 59.8125 C72.33706451 61.05845947 72.33706451 61.05845947 72.1708374 62.32958984 C71.53821186 67.16993554 70.90806602 72.01060034 70.27923584 76.85144043 C69.88119769 79.91411559 69.48166029 82.97659457 69.08203125 86.0390625 C68.95038574 87.048479 68.81874023 88.05789551 68.68310547 89.09790039 C68.44155291 90.9486895 68.19970539 92.79944014 67.95751953 94.65014648 C67.43308758 98.66026222 66.9141917 102.6708596 66.41015625 106.68359375 C66.27323364 107.75589233 66.27323364 107.75589233 66.13354492 108.84985352 C65.89613606 110.70944415 65.6627166 112.56954296 65.4296875 114.4296875 C65 117 65 117 64 118 C62.52645652 118.09304018 61.04849409 118.11746265 59.57202148 118.11352539 C58.63112167 118.11344986 57.69022186 118.11337433 56.72080994 118.11329651 C55.69790359 118.10813522 54.67499725 118.10297394 53.62109375 118.09765625 C52.57929459 118.0962413 51.53749542 118.09482635 50.46412659 118.09336853 C47.12188906 118.0877508 43.77971743 118.0751953 40.4375 118.0625 C38.17773534 118.05748728 35.91796963 118.05292398 33.65820312 118.04882812 C28.10544609 118.03777561 22.55272775 118.02102024 17 118 C9.86234334 73.92343244 9.86234334 73.92343244 7.99291992 58.63671875 C7.04902941 51.03327737 5.78002394 43.49812684 4.48852539 35.94702148 C3.29529671 28.91650656 2.22141913 21.87709848 1.25 14.8125 C1.12238281 13.89782959 0.99476563 12.98315918 0.86328125 12.04077148 C0.74855469 11.18813721 0.63382812 10.33550293 0.515625 9.45703125 C0.41540039 8.71428955 0.31517578 7.97154785 0.21191406 7.20629883 C-0.01784891 4.81416981 0 2.403138 0 0 Z " fill="#0F7AAD" transform="translate(264,958)"/>
<path d="M0 0 C14.85 0 29.7 0 45 0 C45.556875 3.77695312 46.11375 7.55390625 46.6875 11.4453125 C47.15415578 14.60951986 47.62084841 17.77372179 48.08755589 20.93792152 C48.59407973 24.3722266 49.10048961 27.80654842 49.60665894 31.24090576 C51.85342461 46.4851187 54.10569256 61.72845584 56.37890625 76.96875 C56.75068612 79.46467577 57.12243169 81.96060664 57.49414062 84.45654297 C58.02613685 88.02869861 58.55886473 91.60073662 59.09399414 95.17242432 C59.58668841 98.46102488 60.07680624 101.75000008 60.56640625 105.0390625 C60.71284073 106.01121704 60.85927521 106.98337158 61.01014709 107.98498535 C61.20730568 109.31427063 61.20730568 109.31427063 61.40844727 110.67041016 C61.52342056 111.43906403 61.63839386 112.2077179 61.7568512 112.99966431 C62 115 62 115 62 118 C51.44 118 40.88 118 30 118 C29.3381582 110.71974016 28.8957652 104.19220112 29 97 C25.37 97 21.74 97 18 97 C17.90912109 99.02253906 17.90912109 99.02253906 17.81640625 101.0859375 C17.73200578 102.8489696 17.64735753 104.61198984 17.5625 106.375 C17.52318359 107.26445313 17.48386719 108.15390625 17.44335938 109.0703125 C17.38051758 110.34648438 17.38051758 110.34648438 17.31640625 111.6484375 C17.27974854 112.43395996 17.24309082 113.21948242 17.20532227 114.02880859 C17 116 17 116 16 118 C5.77 118 -4.46 118 -15 118 C-15 112.43198388 -14.78922409 107.41322645 -13.9765625 101.9765625 C-13.87032562 101.23151459 -13.76408875 100.48646667 -13.65463257 99.71884155 C-13.31667343 97.35343611 -12.97140388 94.98918219 -12.625 92.625 C-12.17597431 89.53437952 -11.73068273 86.44324983 -11.2890625 83.3515625 C-11.17932098 82.58453506 -11.06957947 81.81750763 -10.95651245 81.02723694 C-10.07118064 74.73541901 -9.35426244 68.43152517 -8.67504883 62.11457825 C-8.12099951 56.98758933 -7.45104571 51.90163894 -6.625 46.8125 C-4.9939009 36.38442574 -3.67272495 25.91812754 -2.35791016 15.4465332 C-2.19597168 14.16609131 -2.0340332 12.88564941 -1.8671875 11.56640625 C-1.72394043 10.42115479 -1.58069336 9.27590332 -1.43310547 8.09594727 C-1.05340804 5.38177413 -0.53747651 2.68738254 0 0 Z " fill="#0F7BAE" transform="translate(568,958)"/>
<path d="M0 0 C0.72960938 0.26683594 1.45921875 0.53367187 2.2109375 0.80859375 C9.03777455 3.75119593 14.07001932 9.1162793 16.875 16 C19.51667056 23.49030639 19.12869249 31.67874282 19.0625 39.5 C19.041875 42.965 19.02125 46.43 19 50 C9.1 50 -0.8 50 -11 50 C-11.375 35.6875 -11.375 35.6875 -11.47802734 31.18237305 C-11.5136377 30.01230713 -11.54924805 28.84224121 -11.5859375 27.63671875 C-11.6173584 26.43748779 -11.6487793 25.23825684 -11.68115234 24.00268555 C-11.78429494 20.82117294 -11.78429494 20.82117294 -14 18 C-16.5 17.58333333 -16.5 17.58333333 -19 18 C-21.89914042 20.89914042 -21.25389285 23.00591693 -21.25878906 27.06420898 C-21.2622937 27.79119995 -21.26579834 28.51819092 -21.26940918 29.26721191 C-21.27823118 31.67693556 -21.2723752 34.08636697 -21.265625 36.49609375 C-21.26697167 38.16756751 -21.26891221 39.83904089 -21.27142334 41.51051331 C-21.27437535 45.01689374 -21.27007505 48.5231724 -21.26074219 52.02954102 C-21.24935637 56.52673428 -21.25590105 61.02368861 -21.26788712 65.52087307 C-21.27511116 68.97379865 -21.27281513 72.42666752 -21.26763153 75.8795948 C-21.26629608 77.5378122 -21.26793909 79.19603473 -21.27259064 80.85424614 C-21.27766386 83.17176845 -21.26993425 85.48890308 -21.25878906 87.80639648 C-21.25719788 89.12606918 -21.25560669 90.44574188 -21.25396729 91.80540466 C-21.24864954 95.15462682 -21.24864954 95.15462682 -19 98 C-15.91634129 98.2502157 -15.91634129 98.2502157 -13 98 C-11.97623126 91.86599067 -11.68417501 85.77087209 -11.4375 79.5625 C-11.293125 76.076875 -11.14875 72.59125 -11 69 C-1.1 69 8.8 69 19 69 C19.45564057 99.07227739 19.45564057 99.07227739 10.2109375 108.90234375 C2.03217793 116.60862518 -5.85908973 118.66732652 -16.9375 118.5 C-18.46793945 118.52320313 -18.46793945 118.52320313 -20.02929688 118.546875 C-29.43321372 118.49886521 -37.57142945 116.16661682 -44.53515625 109.62890625 C-52.97874792 100.23963232 -52.33660932 88.45015695 -52.37109375 76.6015625 C-52.3800762 75.00027388 -52.3891983 73.39898604 -52.39845276 71.79769897 C-52.41488217 68.45072399 -52.42263201 65.10384833 -52.42553711 61.75683594 C-52.43092043 57.49110945 -52.46862367 53.22633004 -52.51428127 48.96087074 C-52.54417877 45.65606358 -52.55126337 42.35148132 -52.55226326 39.04655075 C-52.55643897 37.47501657 -52.5687655 35.90348005 -52.58978081 34.33208084 C-52.72783427 23.11934859 -51.44820083 14.74290804 -43.6875 6.125 C-40.15532828 2.86865947 -36.44339382 0.77557303 -32 -1 C-30.96875 -1.4125 -29.9375 -1.825 -28.875 -2.25 C-18.99197211 -4.16284411 -9.43201624 -3.45840595 0 0 Z " fill="#A3C722" transform="translate(1159,958)"/>
<path d="M0 0 C7.09260658 4.84268607 11.86762688 10.42062515 13.58984375 18.90625 C14.33782281 24.71121794 14.10359962 30.59735371 14.0625 36.4375 C14.041875 40.583125 14.02125 44.72875 14 49 C4.1 49 -5.8 49 -16 49 C-16.06058594 46.77378906 -16.12117188 44.54757812 -16.18359375 42.25390625 C-16.24534119 40.10600237 -16.3087462 37.95815341 -16.37231445 35.81030273 C-16.41571813 34.31360731 -16.45738913 32.81686061 -16.49731445 31.32006836 C-16.55488616 29.17285688 -16.61861716 27.02590479 -16.68359375 24.87890625 C-16.73858032 22.93866577 -16.73858032 22.93866577 -16.79467773 20.95922852 C-16.6667278 18.11444992 -16.6667278 18.11444992 -18 17 C-20.33297433 16.95907063 -22.66705225 16.95758277 -25 17 C-26.46030654 19.92061308 -26.13539287 22.49542651 -26.14526367 25.75708008 C-26.14862228 26.45159775 -26.1519809 27.14611542 -26.15544128 27.86167908 C-26.16496221 30.16431453 -26.16689515 32.46687732 -26.16796875 34.76953125 C-26.1711812 36.36895274 -26.17454526 37.96837393 -26.17805481 39.5677948 C-26.1840494 42.92451661 -26.18589444 46.28121267 -26.18530273 49.63793945 C-26.18520124 53.93538281 -26.19883843 58.23266046 -26.21607494 62.53006458 C-26.22720588 65.83551285 -26.22922158 69.14092125 -26.22869301 72.44638634 C-26.22987205 74.03038795 -26.2342896 75.61439063 -26.24202538 77.19837379 C-26.25184476 79.41727836 -26.24893937 81.63582577 -26.24291992 83.85473633 C-26.24434494 85.11667313 -26.24576996 86.37860992 -26.24723816 87.67878723 C-26.00809058 90.89131719 -25.38381301 93.11464235 -24 96 C-21.69 96 -19.38 96 -17 96 C-16.67 86.76 -16.34 77.52 -16 68 C-6.1 68 3.8 68 14 68 C14.04125 71.279375 14.0825 74.55875 14.125 77.9375 C14.14320801 78.95191162 14.16141602 79.96632324 14.18017578 81.01147461 C14.23817796 90.65199818 13.03062807 99.49192807 6.3125 106.84765625 C-2.29965192 115.02572793 -12.36662193 117.26968998 -23.9375 117.15625 C-28.14586872 116.94153731 -31.9699839 116.19994862 -36 115 C-36.68835937 114.80535156 -37.37671875 114.61070313 -38.0859375 114.41015625 C-44.53540654 112.32210976 -49.20149371 109.27634866 -52.51171875 103.24609375 C-58.54298957 89.16160745 -57.16195854 73.08440547 -57.13037109 58.0390625 C-57.12500912 55.00515752 -57.13034913 51.97140053 -57.13671875 48.9375 C-57.15344813 14.05656614 -57.15344813 14.05656614 -49.4296875 5.19921875 C-37.10317123 -6.35330696 -14.58119934 -7.84124919 0 0 Z " fill="#7DB721" transform="translate(1474,954)"/>
<path d="M0 0 C1.79244141 0.01740234 1.79244141 0.01740234 3.62109375 0.03515625 C5.41740234 0.04869141 5.41740234 0.04869141 7.25 0.0625 C8.17683594 0.07410156 9.10367188 0.08570313 10.05859375 0.09765625 C16.1977786 15.49553045 21.0234971 31.31194784 26.05859375 47.09765625 C26.38859375 31.58765625 26.71859375 16.07765625 27.05859375 0.09765625 C35.63859375 0.09765625 44.21859375 0.09765625 53.05859375 0.09765625 C53.05859375 39.03765625 53.05859375 77.97765625 53.05859375 118.09765625 C44.14859375 118.09765625 35.23859375 118.09765625 26.05859375 118.09765625 C22.67990894 107.96160183 22.67990894 107.96160183 21.41015625 103.78515625 C21.1265625 102.85316406 20.84296875 101.92117188 20.55078125 100.9609375 C20.26460937 100.01605469 19.9784375 99.07117187 19.68359375 98.09765625 C19.40515625 97.18371094 19.12671875 96.26976562 18.83984375 95.328125 C16.1893175 86.60049128 13.6325931 77.84925404 11.05859375 69.09765625 C10.72859375 84.93765625 10.39859375 100.77765625 10.05859375 117.09765625 C5.43859375 117.09765625 0.81859375 117.09765625 -3.94140625 117.09765625 C-3.96452582 101.99040883 -3.98238577 86.88316408 -3.99321842 71.77590275 C-3.99838123 64.76180991 -4.00542364 57.74772825 -4.0168457 50.73364258 C-4.02785313 43.97097557 -4.03368244 37.20832261 -4.03628349 30.44564629 C-4.03813828 27.85913345 -4.04175992 25.27262128 -4.04713631 22.68611336 C-4.05434276 19.0772677 -4.05539736 15.46847078 -4.05493164 11.85961914 C-4.05852692 10.77852875 -4.06212219 9.69743835 -4.06582642 8.58358765 C-4.06445175 7.60617111 -4.06307709 6.62875458 -4.06166077 5.62171936 C-4.06258256 4.76721726 -4.06350435 3.91271517 -4.06445408 3.03231907 C-3.86092548 -0.16773108 -3.25686123 0.10812952 0 0 Z " fill="#1073A5" transform="translate(820.94140625,957.90234375)"/>
<path d="M0 0 C4.95 0 9.9 0 15 0 C16.35460772 4.20819178 17.70868759 8.41655235 19.0625 12.625 C19.43310547 13.77613281 19.80371094 14.92726563 20.18554688 16.11328125 C23.81589377 27.40091444 27.40482654 38.7008834 31 50 C31.33 33.5 31.66 17 32 0 C40.25 0 48.5 0 57 0 C57 38.94 57 77.88 57 118 C48.09 118 39.18 118 30 118 C26.1231899 105.43913528 22.33709146 92.88803102 18.95458984 80.18505859 C18.72594238 79.3286377 18.49729492 78.4722168 18.26171875 77.58984375 C18.06537842 76.84597412 17.86903809 76.10210449 17.66674805 75.33569336 C16.86596471 72.5304593 15.9225287 69.76758611 15 67 C14.67 83.5 14.34 100 14 117 C9.38 117 4.76 117 0 117 C0 78.39 0 39.78 0 0 Z " fill="#0D72A5" transform="translate(441,958)"/>
<path d="M0 0 C18.48 0 36.96 0 56 0 C56 7.92 56 15.84 56 24 C50.06 24 44.12 24 38 24 C38 55.02 38 86.04 38 118 C27.77 118 17.54 118 7 118 C7 86.65 7 55.3 7 23 C4.69 23 2.38 23 0 23 C0 15.41 0 7.82 0 0 Z " fill="#0F7EB2" transform="translate(892,958)"/>
<path d="M0 0 C14.52 0 29.04 0 44 0 C44 7.92 44 15.84 44 24 C37.07 24 30.14 24 23 24 C23 31.26 23 38.52 23 46 C29.27 46 35.54 46 42 46 C42 53.26 42 60.52 42 68 C35.73 68 29.46 68 23 68 C23 76.58 23 85.16 23 94 C30.59 94 38.18 94 46 94 C46 101.92 46 109.84 46 118 C30.82 118 15.64 118 0 118 C0 79.06 0 40.12 0 0 Z " fill="#117EB2" transform="translate(751,958)"/>
<path d="M0 0 C9.9 0 19.8 0 30 0 C30 31.02 30 62.04 30 94 C36.27 94 42.54 94 49 94 C49 101.92 49 109.84 49 118 C32.83 118 16.66 118 0 118 C0 79.06 0 40.12 0 0 Z " fill="#90C018" transform="translate(1190,958)"/>
<path d="M0 0 C10.23 0 20.46 0 31 0 C31.0678365 13.16097648 31.12285136 26.3218364 31.15543652 39.4829483 C31.17107748 45.59449267 31.19228739 51.70591098 31.22631836 57.81738281 C31.25896733 63.71774023 31.27686482 69.61797656 31.28463173 75.51841736 C31.29016526 77.76702276 31.30097088 80.0156217 31.31719017 82.26417542 C31.33903767 85.41910001 31.34196381 88.57352729 31.34057617 91.72851562 C31.351362 92.65352875 31.36214783 93.57854187 31.3732605 94.53158569 C31.34262938 100.98790657 30.55041094 106.8011795 26.38671875 112.0234375 C25.82597656 112.46945312 25.26523437 112.91546875 24.6875 113.375 C23.85798828 114.06722656 23.85798828 114.06722656 23.01171875 114.7734375 C16.94208713 118.47414493 11.00168822 118.24613407 4.125 118.125 C2.66320312 118.11146484 2.66320312 118.11146484 1.171875 118.09765625 C-1.21900728 118.07421623 -3.60937261 118.04140442 -6 118 C-6.13558695 114.95682614 -6.23437239 111.91974438 -6.3125 108.875 C-6.35439453 108.0190625 -6.39628906 107.163125 -6.43945312 106.28125 C-6.45556641 105.44335938 -6.47167969 104.60546875 -6.48828125 103.7421875 C-6.51446533 102.9776123 -6.54064941 102.21303711 -6.56762695 101.42529297 C-6 99 -6 99 -3.5057373 96.42456055 C-0.1426484 92.47505472 -0.28956416 88.79708581 -0.34057617 83.78173828 C-0.33009247 82.87378006 -0.31960876 81.96582184 -0.30880737 81.03034973 C-0.2801143 78.04332058 -0.28634223 75.05745446 -0.29296875 72.0703125 C-0.27985026 69.99379019 -0.26454558 67.91728065 -0.24714661 65.84078979 C-0.20730167 60.3860399 -0.19710644 54.93162386 -0.19311523 49.47674561 C-0.18378292 43.90626908 -0.14636869 38.33598864 -0.11132812 32.765625 C-0.046757 21.84371298 -0.01610928 10.92209114 0 0 Z " fill="#1081B5" transform="translate(517,958)"/>
<path d="M0 0 C9.9 0 19.8 0 30 0 C30 38.94 30 77.88 30 118 C20.1 118 10.2 118 0 118 C0 79.06 0 40.12 0 0 Z " fill="#93C119" transform="translate(1247,958)"/>
<path d="M0 0 C9.9 0 19.8 0 30 0 C30 38.94 30 77.88 30 118 C20.1 118 10.2 118 0 118 C0 79.06 0 40.12 0 0 Z " fill="#96C21A" transform="translate(1370,950)"/>
<path d="M0 0 C8.25 0 16.5 0 25 0 C25 31.02 25 62.04 25 94 C30.94 94 36.88 94 43 94 C43 101.92 43 109.84 43 118 C37.0368177 118.02290595 31.07378689 118.04283396 25.1105957 118.05493164 C23.08031702 118.05997278 21.05004198 118.06680557 19.01977539 118.07543945 C16.10822653 118.08751467 13.1967255 118.09323034 10.28515625 118.09765625 C8.91485008 118.10539818 8.91485008 118.10539818 7.51686096 118.11329651 C5.34424573 118.11349168 3.17172704 118.06211805 1 118 C0 117 0 117 -0.12304783 115.04971981 C-0.12212604 114.18784337 -0.12120424 113.32596693 -0.12025452 112.43797302 C-0.12162918 111.45214233 -0.12300385 110.46631165 -0.12442017 109.4506073 C-0.12082489 108.36016617 -0.11722961 107.26972504 -0.11352539 106.14624023 C-0.11367142 105.00492645 -0.11381744 103.86361267 -0.1139679 102.68771362 C-0.11326818 98.89465469 -0.10547307 95.10164416 -0.09765625 91.30859375 C-0.09579228 88.68685432 -0.09436828 86.06511454 -0.09336853 83.44337463 C-0.09025551 77.23498045 -0.08204252 71.02660379 -0.07201904 64.81821734 C-0.06085699 57.75182559 -0.05534722 50.68543301 -0.05032361 43.61903465 C-0.03985988 29.07934609 -0.02151476 14.53967652 0 0 Z " fill="#1387BB" transform="translate(1031,958)"/>
<path d="M0 0 C4.95 0 9.9 0 15 0 C15 38.61 15 77.22 15 117 C10.05 117 5.1 117 0 117 C0 78.39 0 39.78 0 0 Z " fill="#44A022" transform="translate(1385,950)"/>
<path d="M0 0 C4.29 0 8.58 0 13 0 C13 38.94 13 77.88 13 118 C8.71 118 4.42 118 0 118 C0 79.06 0 40.12 0 0 Z " fill="#48A224" transform="translate(1264,958)"/>
<path d="M0 0 C11.5740921 -0.44515739 20.24731366 1.03932008 29 9 C37.59010077 17.82226565 37.16013665 29.96332271 37.0625 41.5 C37.041875 44.965 37.02125 48.43 37 52 C27.1 52 17.2 52 7 52 C6.625 37.6875 6.625 37.6875 6.52197266 33.18237305 C6.4863623 32.01230713 6.45075195 30.84224121 6.4140625 29.63671875 C6.3826416 28.43748779 6.3512207 27.23825684 6.31884766 26.00268555 C6.21570506 22.82117294 6.21570506 22.82117294 4 20 C2.68 19.67 1.36 19.34 0 19 C0 12.73 0 6.46 0 0 Z " fill="#4AA323" transform="translate(1141,956)"/>
<path d="M0 0 C4.29 0 8.58 0 13 0 C12.67 38.61 12.34 77.22 12 117 C25.2 117 38.4 117 52 117 C52 117.33 52 117.66 52 118 C34.84 118 17.68 118 0 118 C0 79.06 0 40.12 0 0 Z " fill="#5BC4EC" transform="translate(662,958)"/>
<path d="M0 0 C3.63 0 7.26 0 11 0 C11 38.61 11 77.22 11 117 C15.62 117 20.24 117 25 117 C25 99.84 25 82.68 25 65 C27.19461027 68.2919154 27.23093474 69.1318908 27.13525391 72.93041992 C27.11508209 73.93123093 27.09491028 74.93204193 27.0741272 75.96318054 C27.02583267 77.5804882 27.02583267 77.5804882 26.9765625 79.23046875 C26.95153656 80.33602615 26.92651062 81.44158356 26.90072632 82.5806427 C26.81846385 86.11657079 26.72189736 89.65194559 26.625 93.1875 C26.5667669 95.58265959 26.50946349 97.97784197 26.453125 100.37304688 C26.31462449 106.24913486 26.15679947 112.12425757 26 118 C17.42 118 8.84 118 0 118 C0 79.06 0 40.12 0 0 Z " fill="#71D3F6" transform="translate(430,958)"/>
<path d="M0 0 C3.18066304 2.57159991 5.55660384 4.79673246 6.37890625 8.8828125 C6.68114443 12.57397666 6.68423554 15.03318407 4.49609375 18.125 C2.41674545 20.20841747 0.26002603 22.11469331 -2 24 C-2.91845703 24.82564453 -2.91845703 24.82564453 -3.85546875 25.66796875 C-5.87491658 27.48073535 -7.93438285 29.24000988 -10 31 C-10.92296875 31.80050781 -11.8459375 32.60101562 -12.796875 33.42578125 C-20.93484413 40.44372758 -29.39735107 46.98173989 -37.96923828 53.45849609 C-40.43012329 55.32649657 -42.87148964 57.21874207 -45.31176758 59.11352539 C-51.08598649 63.59398629 -56.96123881 67.88328244 -63 72 C-63.66 71.67 -64.32 71.34 -65 71 C-64.64397705 70.51869629 -64.2879541 70.03739258 -63.92114258 69.54150391 C-53.85743733 55.92902685 -43.88902866 42.25129049 -34.04711914 28.47753906 C-33.23367615 27.33933012 -32.41908749 26.20193896 -31.60327148 25.06542969 C-29.50237428 22.13282914 -27.4355763 19.18187408 -25.40625 16.19921875 C-24.97207764 15.56983398 -24.53790527 14.94044922 -24.09057617 14.29199219 C-23.27098484 13.10276282 -22.46037717 11.90726202 -21.66137695 10.70410156 C-16.53220111 3.31247335 -9.33975278 -1.67496541 0 0 Z " fill="#5DA431" transform="translate(1129,752)"/>
<path d="M0 0 C3.96 0 7.92 0 12 0 C11.67 38.61 11.34 77.22 11 117 C15.62 117 20.24 117 25 117 C25 117.33 25 117.66 25 118 C16.75 118 8.5 118 0 118 C0 79.06 0 40.12 0 0 Z " fill="#75D5F8" transform="translate(806,958)"/>
<path d="M0 0 C4.29 0 8.58 0 13 0 C12.67 37.62 12.34 75.24 12 114 C5.73886113 110.86943057 2.92892848 106.770036 0.60507774 100.27220154 C-0.47088873 96.23170805 -0.3910947 92.2530806 -0.34057617 88.09570312 C-0.34101425 87.138685 -0.34145233 86.18166687 -0.34190369 85.19564819 C-0.33982687 82.05730218 -0.31654808 78.91950178 -0.29296875 75.78125 C-0.28736886 73.59550264 -0.28310062 71.4097515 -0.28010559 69.22399902 C-0.26868781 63.48976118 -0.23924695 57.7557537 -0.20599365 52.02160645 C-0.17522662 46.16287349 -0.16158609 40.30410307 -0.14648438 34.4453125 C-0.11437437 22.96344082 -0.06321512 11.48173962 0 0 Z " fill="#60C7EE" transform="translate(349,958)"/>
<path d="M0 0 C3.3 0 6.6 0 10 0 C10 38.61 10 77.22 10 117 C11.65 117 13.3 117 15 117 C15 117.33 15 117.66 15 118 C10.05 118 5.1 118 0 118 C0 79.06 0 40.12 0 0 Z " fill="#B5CD22" transform="translate(1190,958)"/>
<path d="M0 0 C8.58 0 17.16 0 26 0 C26.061875 3.774375 26.12375 7.54875 26.1875 11.4375 C26.21481201 12.60853271 26.24212402 13.77956543 26.27026367 14.98608398 C26.34724491 24.76766718 24.79442766 32.01740931 17.94921875 39.20703125 C13.34777421 43.43962252 9.6302894 45.91740684 3.35107422 46.55688477 C2.53726288 46.64148453 1.72345154 46.72608429 0.88497925 46.81324768 C0.2629361 46.87487595 -0.35910706 46.93650421 -1 47 C-1.02529825 40.62793828 -1.04284496 34.25588946 -1.05493164 27.88378906 C-1.05996891 25.71483883 -1.06679891 23.545892 -1.07543945 21.37695312 C-1.08753151 18.26431437 -1.09323428 15.1517204 -1.09765625 12.0390625 C-1.10281754 11.065065 -1.10797882 10.0910675 -1.11329651 9.08755493 C-1.11337204 8.18677216 -1.11344757 7.28598938 -1.11352539 6.35791016 C-1.115746 5.56293121 -1.11796661 4.76795227 -1.12025452 3.94888306 C-1 2 -1 2 0 0 Z " fill="#45A023" transform="translate(1151,1028)"/>
<path d="M0 0 C3.3 0 6.6 0 10 0 C10.06957872 13.16094853 10.1228514 26.32185314 10.15543652 39.4829483 C10.17107748 45.59449267 10.19228739 51.70591098 10.22631836 57.81738281 C10.25896733 63.71774023 10.27686482 69.61797656 10.28463173 75.51841736 C10.29016526 77.76702276 10.30097088 80.0156217 10.31719017 82.26417542 C10.33903767 85.41910001 10.34196381 88.57352729 10.34057617 91.72851562 C10.351362 92.65352875 10.36214783 93.57854187 10.3732605 94.53158569 C10.33909565 101.73273469 9.25548983 107.35942654 4.4375 113 C2 115 2 115 0 115 C0 77.05 0 39.1 0 0 Z " fill="#105381" transform="translate(538,958)"/>
<path d="M0 0 C1.32 0 2.64 0 4 0 C4 31.02 4 62.04 4 94 C10.27 94 16.54 94 23 94 C23 101.92 23 109.84 23 118 C20.133125 118.020625 17.26625 118.04125 14.3125 118.0625 C13.41829346 118.071604 12.52408691 118.08070801 11.6027832 118.09008789 C10.52516724 118.09383423 10.52516724 118.09383423 9.42578125 118.09765625 C8.69786377 118.10289307 7.96994629 118.10812988 7.2199707 118.11352539 C5 118 5 118 0 117 C0 78.39 0 39.78 0 0 Z " fill="#5DAA23" transform="translate(1216,958)"/>
<path d="M0 0 C1.57991444 3.15982889 1.34420735 5.50055861 1 9 C-6.17275666 22.85084044 -24.90013835 27.80431787 -38.8125 32.3125 C-39.58851562 32.56717041 -40.36453125 32.82184082 -41.1640625 33.08422852 C-46.45258708 34.73689245 -51.47780749 35.53294889 -57 36 C-49.01720207 18.89400444 -29.89867193 8.35938506 -12.9609375 1.828125 C-8.5574934 0.41795861 -4.66717423 -0.36846112 0 0 Z " fill="#5DA532" transform="translate(1136,789)"/>
<path d="M0 0 C2.31 0 4.62 0 7 0 C7 38.94 7 77.88 7 118 C4.69 118 2.38 118 0 118 C0 79.06 0 40.12 0 0 Z " fill="#60C7EF" transform="translate(744,958)"/>
<path d="M0 0 C6 0 6 0 8.34364319 1.57971191 C10.5386934 4.78714514 10.50117468 6.8505246 10.50170898 10.72460938 C10.50711197 11.39176468 10.51251495 12.05891998 10.51808167 12.74629211 C10.53056265 14.94589966 10.51408422 17.14419655 10.49609375 19.34375 C10.49624876 20.87544829 10.49773799 22.40714697 10.50050354 23.93884277 C10.50188724 27.14674245 10.48933503 30.35419485 10.46655273 33.56201172 C10.43816771 37.6713287 10.44090558 41.77990263 10.45364285 45.8892746 C10.46060209 49.05147636 10.45280804 52.21350676 10.44038582 55.37568665 C10.43587367 56.89072512 10.43553246 58.40578201 10.43945122 59.92082214 C10.44236597 62.03939438 10.42584587 64.1569473 10.40405273 66.27539062 C10.39864975 67.48022095 10.39324677 68.68505127 10.38768005 69.9263916 C9.9543039 73.3622882 9.62800949 74.74310057 7 77 C3.535 77.495 3.535 77.495 0 78 C0 52.26 0 26.52 0 0 Z " fill="#F3F9FB" transform="translate(692,978)"/>
<path d="M0 0 C1.98 0 3.96 0 6 0 C6 38.61 6 77.22 6 117 C6.66 117.33 7.32 117.66 8 118 C5.36 118 2.72 118 0 118 C0 79.06 0 40.12 0 0 Z " fill="#C6D227" transform="translate(1247,958)"/>
<path d="M0 0 C1.98 0 3.96 0 6 0 C6 38.61 6 77.22 6 117 C6.66 117.33 7.32 117.66 8 118 C5.36 118 2.72 118 0 118 C0 79.06 0 40.12 0 0 Z " fill="#C5D226" transform="translate(1370,950)"/>
<path d="M0 0 C1.98 0 3.96 0 6 0 C6.33 38.94 6.66 77.88 7 118 C4.69 118 2.38 118 0 118 C0 79.06 0 40.12 0 0 Z " fill="#74D3F6" transform="translate(1025,958)"/>
<path d="M0 0 C0.33 0 0.66 0 1 0 C1 32.67 1 65.34 1 99 C6.94 99 12.88 99 19 99 C19 99.33 19 99.66 19 100 C8.77 100 -1.46 100 -12 100 C-12 94.43198388 -11.78922409 89.41322645 -10.9765625 83.9765625 C-10.87032562 83.23151459 -10.76408875 82.48646667 -10.65463257 81.71884155 C-10.31667343 79.35343611 -9.97140388 76.98918219 -9.625 74.625 C-9.17597431 71.53437952 -8.73068558 68.44324942 -8.2890625 65.3515625 C-8.17923035 64.58394592 -8.06939819 63.81632935 -7.95623779 63.02545166 C-7.07369795 56.75382394 -6.36012095 50.47027501 -5.68411255 44.17349243 C-5.09851457 38.75642873 -4.36987974 33.37916103 -3.5 28 C-2.0471905 18.69389159 -0.96172276 9.36831113 0 0 Z " fill="#3CAEDC" transform="translate(565,976)"/>
<path d="M0 0 C1.65 0 3.3 0 5 0 C5 38.61 5 77.22 5 117 C3.02 117 1.04 117 -1 117 C-1.02332969 101.89275309 -1.04097952 86.78550757 -1.05181217 71.6782465 C-1.05697498 64.66415366 -1.06401739 57.650072 -1.07543945 50.63598633 C-1.08644688 43.87331932 -1.09227619 37.11066636 -1.09487724 30.34799004 C-1.09673203 27.7614772 -1.10035367 25.17496503 -1.10573006 22.58845711 C-1.11293651 18.97961145 -1.11399111 15.37081453 -1.11352539 11.76196289 C-1.11712067 10.6808725 -1.12071594 9.5997821 -1.12442017 8.4859314 C-1.1230455 7.50851486 -1.12167084 6.53109833 -1.12025452 5.52406311 C-1.12117631 4.66956101 -1.1220981 3.81505892 -1.12304783 2.93466282 C-1 1 -1 1 0 0 Z " fill="#78B61A" transform="translate(1211,958)"/>
<path d="M0 0 C2.57501817 3.86121196 2.2676718 7.88697666 2.22705078 12.34863281 C2.22734283 13.18802399 2.22763489 14.02741516 2.22793579 14.89224243 C2.22654409 17.66264231 2.21099039 20.43277219 2.1953125 23.203125 C2.1915818 25.12554782 2.1887351 27.04797255 2.18673706 28.97039795 C2.17910508 34.02731588 2.15946027 39.08411872 2.1373291 44.14099121 C2.11686134 49.30231164 2.10773335 54.46365068 2.09765625 59.625 C2.076214 69.75005867 2.04103535 79.87500175 2 90 C7.94 90.33 13.88 90.66 20 91 C20 91.33 20 91.66 20 92 C9.44 92 -1.12 92 -12 92 C-10.69989987 80.0200819 -9.27637041 68.06963511 -7.6875 56.125 C-7.47239296 54.49788665 -7.25730548 52.87077071 -7.04223633 51.24365234 C-4.7763676 34.15122287 -2.39926768 17.07414542 0 0 Z " fill="#4FBBE5" transform="translate(954,984)"/>
<path d="M0 0 C4.62 0 9.24 0 14 0 C13.67 28.38 13.34 56.76 13 86 C11.07602223 82.15204445 10.56073131 79.86294496 10.0703125 75.671875 C9.84009399 73.77779907 9.84009399 73.77779907 9.60522461 71.84545898 C9.52706512 71.1777951 9.44890564 70.51013123 9.36837769 69.82223511 C8.95498697 66.30242701 8.51600344 62.7858738 8.07421875 59.26953125 C7.9855806 58.56300919 7.89694244 57.85648712 7.80561829 57.1285553 C7.00795968 50.87031296 6.01534834 44.65357717 4.9375 38.4375 C3.58022645 30.57767643 2.33601248 22.71476461 1.25 14.8125 C1.12230225 13.89718506 0.99460449 12.98187012 0.86303711 12.03881836 C0.74839111 11.18682861 0.63374512 10.33483887 0.515625 9.45703125 C0.41540039 8.71428955 0.31517578 7.97154785 0.21191406 7.20629883 C-0.01784891 4.81416981 0 2.403138 0 0 Z " fill="#41B2DF" transform="translate(264,958)"/>
<path d="M0 0 C1.65 0 3.3 0 5 0 C5 38.94 5 77.88 5 118 C3.35 118 1.7 118 0 118 C0 79.06 0 40.12 0 0 Z " fill="#7BD9FB" transform="translate(662,958)"/>
<path d="M0 0 C1.65 0 3.3 0 5 0 C4.67 38.61 4.34 77.22 4 117 C8.62 117 13.24 117 18 117 C18 117.33 18 117.66 18 118 C12.06 118 6.12 118 0 118 C0 79.06 0 40.12 0 0 Z " fill="#3DAFDE" transform="translate(813,958)"/>
<path d="M0 0 C1.32 0 2.64 0 4 0 C4 38.61 4 77.22 4 117 C4.99 117.33 5.98 117.66 7 118 C4.69 118 2.38 118 0 118 C0 79.06 0 40.12 0 0 Z " fill="#D6D82D" transform="translate(1190,958)"/>
<path d="M0 0 C1.32 0 2.64 0 4 0 C4 38.61 4 77.22 4 117 C2.68 117 1.36 117 0 117 C0 78.39 0 39.78 0 0 Z " fill="#6FB21C" transform="translate(1260,958)"/>
<path d="M0 0 C1.32 0 2.64 0 4 0 C4 38.61 4 77.22 4 117 C2.68 117 1.36 117 0 117 C0 78.39 0 39.78 0 0 Z " fill="#5FAB1F" transform="translate(1385,950)"/>
<path d="M0 0 C0.99 0 1.98 0 3 0 C3 38.61 3 77.22 3 117 C7.62 117 12.24 117 17 117 C17 99.84 17 82.68 17 65 C19.19461027 68.2919154 19.23093474 69.1318908 19.13525391 72.93041992 C19.11508209 73.93123093 19.09491028 74.93204193 19.0741272 75.96318054 C19.02583267 77.5804882 19.02583267 77.5804882 18.9765625 79.23046875 C18.95153656 80.33602615 18.92651062 81.44158356 18.90072632 82.5806427 C18.81846385 86.11657079 18.72189736 89.65194559 18.625 93.1875 C18.5667669 95.58265959 18.50946349 97.97784197 18.453125 100.37304688 C18.31287568 106.24900515 18.16087646 112.12457226 18 118 C15.37493198 118.02690844 12.75013827 118.04679404 10.125 118.0625 C9.37863281 118.07087891 8.63226563 118.07925781 7.86328125 118.08789062 C2.2265625 118.11328125 2.2265625 118.11328125 0 117 C0 78.39 0 39.78 0 0 Z " fill="#43B0DC" transform="translate(438,958)"/>
<path d="M0 0 C1.32 0 2.64 0 4 0 C4 34.98 4 69.96 4 106 C0.02880809 100.04321213 -0.28294333 95.41956031 -0.22705078 88.4362793 C-0.22734283 87.47969925 -0.22763489 86.5231192 -0.22793579 85.53755188 C-0.22654503 82.3830145 -0.21099559 79.22871476 -0.1953125 76.07421875 C-0.19158147 73.88418202 -0.18873492 71.69414361 -0.18673706 69.50410461 C-0.17910768 63.74522274 -0.15946507 57.98644205 -0.1373291 52.2276001 C-0.11685575 46.34901295 -0.10773215 40.47040942 -0.09765625 34.59179688 C-0.0762186 23.06115351 -0.04209096 11.53058517 0 0 Z " fill="#7DDBFC" transform="translate(349,958)"/>
<path d="M0 0 C1.32 0.33 2.64 0.66 4 1 C3.67 39.28 3.34 77.56 3 117 C16.2 117 29.4 117 43 117 C43 117.33 43 117.66 43 118 C28.81 118 14.62 118 0 118 C0 79.06 0 40.12 0 0 Z " fill="#2CA2D3" transform="translate(671,958)"/>
<path d="M0 0 C5.61 0 11.22 0 17 0 C17 7.26 17 14.52 17 22 C11.39 22 5.78 22 0 22 C0 14.74 0 7.48 0 0 Z " fill="#449F22" transform="translate(1221,1053)"/>
<path d="M0 0 C0.99 0 1.98 0 3 0 C3 38.94 3 77.88 3 118 C2.01 118 1.02 118 0 118 C0 79.06 0 40.12 0 0 Z " fill="#80DCFC" transform="translate(744,958)"/>
<path d="M0 0 C1.32 0.33 2.64 0.66 4 1 C3.67 39.28 3.34 77.56 3 117 C2.01 117 1.02 117 0 117 C0 78.39 0 39.78 0 0 Z " fill="#A5C71C" transform="translate(1200,958)"/>
<path d="M0 0 C0.99 0 1.98 0 3 0 C3 38.61 3 77.22 3 117 C2.01 117 1.02 117 0 117 C0 78.39 0 39.78 0 0 Z " fill="#C5D226" transform="translate(1194,958)"/>
<path d="M0 0 C0.99 0 1.98 0 3 0 C3 38.61 3 77.22 3 117 C2.01 117 1.02 117 0 117 C0 78.39 0 39.78 0 0 Z " fill="#7CB819" transform="translate(1382,950)"/>
<path d="M0 0 C1.32 0.33 2.64 0.66 4 1 C3.67 38.29 3.34 75.58 3 114 C2.01 113.67 1.02 113.34 0 113 C0 75.71 0 38.42 0 0 Z " fill="#2AA3D5" transform="translate(358,958)"/>
<path d="M0 0 C0.33 0 0.66 0 1 0 C1.57197288 6.19282334 2.14157599 12.38585834 2.70898438 18.57910156 C2.90234303 20.68593231 3.09634906 22.79270376 3.29101562 24.89941406 C3.57071433 27.92758062 3.8480841 30.95595285 4.125 33.984375 C4.21249512 34.92617615 4.29999023 35.86797729 4.39013672 36.83831787 C4.47021973 37.71892883 4.55030273 38.59953979 4.6328125 39.50683594 C4.70387207 40.27960876 4.77493164 41.05238159 4.84814453 41.84857178 C4.99255924 43.89458223 5 45.94889923 5 48 C1.37 48 -2.26 48 -6 48 C-5.4556632 39.39947861 -4.57244471 30.86965767 -3.5625 22.3125 C-3.44028076 21.25619385 -3.31806152 20.1998877 -3.19213867 19.11157227 C-2.41693487 12.6676592 -1.38271011 6.34175977 0 0 Z " fill="#E9F4F8" transform="translate(981,986)"/>
<path d="M0 0 C0.33 0 0.66 0 1 0 C1.08564209 0.96824707 1.17128418 1.93649414 1.25952148 2.93408203 C1.57962431 6.5461079 1.90276923 10.1578564 2.22680664 13.76953125 C2.36630144 15.32902817 2.50498485 16.8885979 2.64282227 18.44824219 C2.84174777 20.69746485 3.04364542 22.94640452 3.24609375 25.1953125 C3.3065538 25.8861795 3.36701385 26.57704651 3.42930603 27.28884888 C3.78753384 31.23161005 4.33329796 35.09908379 5 39 C5.11764962 42.34124918 5.04520452 45.65486549 5 49 C1.7 49 -1.6 49 -5 49 C-4.58896799 38.15725906 -3.69897244 27.40997721 -2.5 16.625 C-2.36940186 15.44252686 -2.23880371 14.26005371 -2.10424805 13.04174805 C-1.04868639 3.79304916 -1.04868639 3.79304916 0 0 Z " fill="#EBF4F9" transform="translate(591,985)"/>
<path d="M0 0 C3.63 0 7.26 0 11 0 C11 7.59 11 15.18 11 23 C13.31 23 15.62 23 18 23 C18 23.33 18 23.66 18 24 C12.06 24 6.12 24 0 24 C0 16.08 0 8.16 0 0 Z " fill="#4EBCE6" transform="translate(881,958)"/>
<path d="M0 0 C0.33 0 0.66 0 1 0 C1.23083837 21.67315765 0.55269871 43.33597457 0 65 C-2.64 65 -5.28 65 -8 65 C-6.65867823 52.453033 -5.11433539 39.94374234 -3.4375 27.4375 C-3.10382175 24.94061598 -2.77073371 22.44365651 -2.43873596 19.94654846 C-2.23498265 18.41478202 -2.030265 16.88314337 -1.82432556 15.35166931 C-1.14317352 10.24147116 -0.55574237 5.12539004 0 0 Z " fill="#74D3F7" transform="translate(950,1011)"/>
<path d="M0 0 C0.33 0 0.66 0 1 0 C1.08076752 13.36141639 0.82596786 26.70547463 0.5 40.0625 C0.4516401 42.10481339 0.40346193 44.14713109 0.35546875 46.18945312 C0.23906751 51.12635414 0.1202306 56.06319082 0 61 C0.99 61.33 1.98 61.66 3 62 C-0.3 62 -3.6 62 -7 62 C-7.09952296 56.55662598 -6.78218448 51.36613183 -5.9765625 45.9765625 C-5.87032562 45.23151459 -5.76408875 44.48646667 -5.65463257 43.71884155 C-5.31667343 41.35343611 -4.97140388 38.98918219 -4.625 36.625 C-4.17597431 33.53437955 -3.73066273 30.44325268 -3.2890625 27.3515625 C-3.18031799 26.5911969 -3.07157349 25.8308313 -2.95953369 25.04742432 C-1.78813004 16.71897922 -0.87952334 8.36355789 0 0 Z " fill="#70CFF3" transform="translate(560,1014)"/>
<path d="M0 0 C2.57501817 3.86121196 2.2676718 7.88697666 2.22705078 12.34863281 C2.22734283 13.18802399 2.22763489 14.02741516 2.22793579 14.89224243 C2.22654409 17.66264231 2.21099039 20.43277219 2.1953125 23.203125 C2.1915818 25.12554782 2.1887351 27.04797255 2.18673706 28.97039795 C2.17910508 34.02731588 2.15946027 39.08411872 2.1373291 44.14099121 C2.11686134 49.30231164 2.10773335 54.46365068 2.09765625 59.625 C2.076214 69.75005867 2.04103535 79.87500175 2 90 C7.94 90.33 13.88 90.66 20 91 C20 91.33 20 91.66 20 92 C16.68751813 92.02888146 13.37506833 92.04675799 10.0625 92.0625 C9.11697266 92.07087891 8.17144531 92.07925781 7.19726562 92.08789062 C5.84858398 92.09272461 5.84858398 92.09272461 4.47265625 92.09765625 C3.64000244 92.10289307 2.80734863 92.10812988 1.94946289 92.11352539 C0 92 0 92 -1 91 C-1.09954508 88.93326143 -1.12799707 86.86307933 -1.12939453 84.79394531 C-1.13114685 84.14478149 -1.13289917 83.49561768 -1.13470459 82.82678223 C-1.13913513 80.66053656 -1.13617419 78.49437164 -1.1328125 76.328125 C-1.13348682 74.81044499 -1.13445791 73.29276509 -1.13571167 71.77508545 C-1.13719155 68.57367945 -1.1350308 65.37230122 -1.13037109 62.17089844 C-1.12476914 58.13108788 -1.12797572 54.09134459 -1.13382339 50.05153656 C-1.15422114 33.34188472 -1.07734444 16.68288726 0 0 Z " fill="#2DA3D4" transform="translate(954,984)"/>
<path d="M0 0 C2.31 0 4.62 0 7 0 C7 15.51 7 31.02 7 47 C6.67 47 6.34 47 6 47 C5.88930176 46.18958252 5.77860352 45.37916504 5.66455078 44.54418945 C5.2441912 41.4706654 4.82284455 38.39727855 4.40087891 35.32397461 C4.13240273 33.3664744 3.86501406 31.40882514 3.59765625 29.45117188 C2.60358474 22.21654032 1.54985656 14.99939551 0.36279297 7.79370117 C0.02039578 5.15705848 -0.06742478 2.65477469 0 0 Z " fill="#78D6F8" transform="translate(264,958)"/>
<path d="M0 0 C1.65 0 3.3 0 5 0 C5 7.59 5 15.18 5 23 C9.29 23 13.58 23 18 23 C18 23.33 18 23.66 18 24 C12.06 24 6.12 24 0 24 C0 16.08 0 8.16 0 0 Z " fill="#87DCFA" transform="translate(881,958)"/>
<path d="M0 0 C0.33 0 0.66 0 1 0 C1.87782924 4.51368252 2.1166438 8.77219979 2.09765625 13.3671875 C2.0962413 14.04677521 2.09482635 14.72636292 2.09336853 15.42654419 C2.08781518 17.57607612 2.07527169 19.72550008 2.0625 21.875 C2.05747896 23.34114432 2.05291711 24.80729029 2.04882812 26.2734375 C2.03786111 29.84899283 2.02062919 33.42448586 2 37 C0.02 37 -1.96 37 -4 37 C-4.3176201 29.21830757 -3.11463406 21.68461636 -2 14 C-1.80678562 12.63939468 -1.61407307 11.278718 -1.421875 9.91796875 C-0.95283621 6.61124526 -0.4787382 3.30533076 0 0 Z " fill="#84DBFB" transform="translate(557,1039)"/>
<path d="M0 0 C1.98 0 3.96 0 6 0 C5.67 6.93 5.34 13.86 5 21 C3.35 21 1.7 21 0 21 C0 14.07 0 7.14 0 0 Z " fill="#72D1F5" transform="translate(506,1055)"/>
<path d="M0 0 C0.33 0 0.66 0 1 0 C1.22490314 21.34080883 0.55845976 42.66861964 0 64 C-0.33 64 -0.66 64 -1 64 C-1.19621635 57.45743639 -1.37295059 50.91453938 -1.53710938 44.37109375 C-1.59495932 42.15222678 -1.65702141 39.93346498 -1.72363281 37.71484375 C-2.10430636 24.93344088 -2.17236616 12.63408616 0 0 Z " fill="#65CAF1" transform="translate(950,1011)"/>
<path d="M0 0 C0.33 0 0.66 0 1 0 C1.9802248 5.68839118 2.11948801 11.17294333 2.0625 16.9375 C2.05798828 17.81212891 2.05347656 18.68675781 2.04882812 19.58789062 C2.03714834 21.72529047 2.01921689 23.86265463 2 26 C2.99 26.33 3.98 26.66 5 27 C2.36 27 -0.28 27 -3 27 C-2 18 -1 9 0 0 Z " fill="#8ADDFC" transform="translate(945,1049)"/>
<path d="M0 0 C0.99 0 1.98 0 3 0 C3 7.26 3 14.52 3 22 C2.01 22 1.02 22 0 22 C0 14.74 0 7.48 0 0 Z " fill="#0D4470" transform="translate(1071,1053)"/>
<path d="M0 0 C0.66 0.33 1.32 0.66 2 1 C1.28972656 1.97582031 0.57945313 2.95164062 -0.15234375 3.95703125 C-1.08092898 5.24204313 -2.00930343 6.52720735 -2.9375 7.8125 C-3.40607422 8.45509766 -3.87464844 9.09769531 -4.35742188 9.75976562 C-4.80537109 10.38173828 -5.25332031 11.00371094 -5.71484375 11.64453125 C-6.33540649 12.50075073 -6.33540649 12.50075073 -6.96850586 13.37426758 C-8.18088617 15.14060289 -8.18088617 15.14060289 -9 18 C-10.9375 18.625 -10.9375 18.625 -13 19 C-13.66 19.33 -14.32 19.66 -15 20 C-13.19698066 15.94575312 -10.62974872 12.4684073 -8.0625 8.875 C-7.61970703 8.24207031 -7.17691406 7.60914063 -6.72070312 6.95703125 C-4.64273551 4.03982485 -3.00897408 2.00598272 0 0 Z " fill="#EFF7EC" transform="translate(1073,808)"/>
<path d="M0 0 C1.80330533 3.60661066 2.46599103 6.08393425 3 10 C2.34 10 1.68 10 1 10 C1 24.19 1 38.38 1 53 C0.67 53 0.34 53 0 53 C0 35.51 0 18.02 0 0 Z " fill="#D1E8F3" transform="translate(831,1023)"/>
<path d="M0 0 C0.76143311 0.06638672 1.52286621 0.13277344 2.30737305 0.20117188 C2.96737305 1.19117188 3.62737305 2.18117188 4.30737305 3.20117188 C0.2032655 3.2591332 -3.90073711 3.294755 -8.00512695 3.32617188 C-9.17237305 3.34292969 -10.33961914 3.3596875 -11.54223633 3.37695312 C-13.21962891 3.38662109 -13.21962891 3.38662109 -14.9309082 3.39648438 C-16.47838745 3.41219482 -16.47838745 3.41219482 -18.05712891 3.42822266 C-20.69262695 3.20117188 -20.69262695 3.20117188 -23.69262695 1.20117188 C-20.29688877 1.03252869 -16.90102281 0.86660722 -13.50512695 0.70117188 C-12.06556641 0.62962891 -12.06556641 0.62962891 -10.59692383 0.55664062 C-9.19990234 0.48896484 -9.19990234 0.48896484 -7.7746582 0.41992188 C-6.92105713 0.37802734 -6.06745605 0.33613281 -5.18798828 0.29296875 C-3.45707451 0.22929361 -1.72727057 0.12904805 0 0 Z " fill="#F0F8F5" transform="translate(826.692626953125,954.798828125)"/>
<path d="M0 0 C0.33 0 0.66 0 1 0 C1 7.26 1 14.52 1 22 C0.34 22 -0.32 22 -1 22 C-1.33 22.66 -1.66 23.32 -2 24 C-2.10103455 18.39258264 -1.76082036 13.05193239 -1 7.5 C-0.90460937 6.77296875 -0.80921875 6.0459375 -0.7109375 5.296875 C-0.47853833 3.53064133 -0.23993362 1.76522594 0 0 Z " fill="#77CFF1" transform="translate(950,1011)"/>
<path d="M0 0 C0 3 0 3 -1.28515625 4.62573242 C-2.16494141 5.4819519 -2.16494141 5.4819519 -3.0625 6.35546875 C-3.69414063 6.97744141 -4.32578125 7.59941406 -4.9765625 8.24023438 C-5.64429688 8.88283203 -6.31203125 9.52542969 -7 10.1875 C-8.00160156 11.16879883 -8.00160156 11.16879883 -9.0234375 12.16992188 C-10.67578441 13.78686135 -12.33471601 15.39640491 -14 17 C-14.66 16.67 -15.32 16.34 -16 16 C-14.5484451 14.32742645 -13.08855591 12.66208242 -11.625 11 C-10.81289063 10.071875 -10.00078125 9.14375 -9.1640625 8.1875 C-8.44992187 7.465625 -7.73578125 6.74375 -7 6 C-6.34 6 -5.68 6 -5 6 C-5 5.34 -5 4.68 -5 4 C-3.37373596 2.61767557 -1.7074998 1.28062485 0 0 Z " fill="#F2F2B6" transform="translate(648,421)"/>
<path d="M0 0 C-4.29 1.65 -8.58 3.3 -13 5 C-12.67 3.68 -12.34 2.36 -12 1 C-10.56496445 0.63597631 -9.12683494 0.28413409 -7.6875 -0.0625 C-6.88699219 -0.25972656 -6.08648438 -0.45695312 -5.26171875 -0.66015625 C-3 -1 -3 -1 0 0 Z " fill="#E2E25F" transform="translate(771,345)"/>
<path d="M0 0 C0.66 0.33 1.32 0.66 2 1 C2 1.99 2 2.98 2 4 C0.54618103 4.69699552 -0.91322953 5.38233866 -2.375 6.0625 C-3.18710937 6.44535156 -3.99921875 6.82820313 -4.8359375 7.22265625 C-5.55007813 7.47917969 -6.26421875 7.73570312 -7 8 C-7.66 7.67 -8.32 7.34 -9 7 C-6.03 4.69 -3.06 2.38 0 0 Z " fill="#91E1FD" transform="translate(662,335)"/>
</svg>
